<svg width="58" height="58" viewBox="0 0 58 58" fill="none" xmlns="http://www.w3.org/2000/svg">
<rect width="58" height="58" rx="12" fill="#F8DEBD"/>
<path d="M29.5 10.75C27.4136 10.7491 25.3761 11.3811 23.6564 12.5625C21.9367 13.7439 20.6158 15.4191 19.8681 17.3669C19.0903 17.1428 18.3019 16.9575 17.5056 16.8119C15.8681 16.5153 14.2067 16.3697 12.5425 16.3769L12.22 16.3844L12.13 16.3881L12.0925 16.39C11.7466 16.4089 11.4198 16.5548 11.1748 16.7998C10.9298 17.0448 10.7839 17.3716 10.765 17.7175L10.7594 17.8469C10.7556 17.9219 10.7531 18.0288 10.7519 18.1675C10.7481 18.4413 10.75 18.8331 10.7669 19.315C10.8044 20.2788 10.9113 21.6175 11.1869 23.1306C11.4381 24.5088 11.8394 26.065 12.4806 27.625H12.1488C11.7778 27.625 11.422 27.7724 11.1597 28.0347C10.8974 28.297 10.75 28.6528 10.75 29.0238V29.5C10.75 31.4594 11.05 33.3494 11.6087 35.125H47.3912C47.962 33.3046 48.2516 31.4078 48.25 29.5V29.0238C48.25 28.6528 48.1026 28.297 47.8403 28.0347C47.578 27.7724 47.2222 27.625 46.8512 27.625H46.3694L46.3731 27.3906C46.3721 25.361 45.6962 23.3892 44.4518 21.7858C43.2074 20.1823 41.4652 19.038 39.4994 18.5331C38.9364 16.3077 37.6469 14.3338 35.8354 12.924C34.0238 11.5142 31.7936 10.7492 29.4981 10.75M29.4981 13.5625C30.998 13.5625 32.4634 14.0121 33.7051 14.8534C34.9467 15.6947 35.9077 16.8889 36.4637 18.2819C34.8515 18.4178 33.3041 18.9787 31.9793 19.9076C30.6546 20.8365 29.5998 22.1 28.9225 23.5694C28.4169 22.8202 27.8412 22.1208 27.2031 21.4806C25.7987 20.0763 24.1656 19.0619 22.5119 18.325C23.0625 16.9204 24.024 15.7145 25.2707 14.8649C26.5174 14.0153 27.9913 13.5614 29.5 13.5625M43.5606 27.3906C43.5606 27.4694 43.5588 27.5475 43.555 27.625H30.9381L30.9044 27.5313V27.3906C30.9044 25.7123 31.5711 24.1027 32.7578 22.916C33.9446 21.7292 35.5542 21.0625 37.2325 21.0625C38.9108 21.0625 40.5204 21.7292 41.7072 22.916C42.8939 24.1027 43.5606 25.7123 43.5606 27.3906ZM25.2156 23.47C26.4213 24.6738 27.295 26.1231 27.925 27.625H23.9875L20.65 24.2875C20.5213 24.1493 20.366 24.0385 20.1935 23.9617C20.021 23.8848 19.8348 23.8435 19.646 23.8401C19.4572 23.8368 19.2696 23.8715 19.0945 23.9423C18.9194 24.013 18.7603 24.1183 18.6268 24.2518C18.4933 24.3853 18.388 24.5444 18.3173 24.7195C18.2465 24.8946 18.2118 25.0822 18.2151 25.271C18.2185 25.4598 18.2598 25.646 18.3367 25.8185C18.4135 25.991 18.5243 26.1463 18.6625 26.275L20.0125 27.625H15.5688C14.7438 25.9825 14.2488 24.2256 13.9563 22.6244C13.751 21.4959 13.6257 20.3543 13.5812 19.2081V19.2044C14.4437 19.2363 15.6475 19.3319 16.9994 19.5794C19.7369 20.08 22.9225 21.1731 25.2156 23.47ZM12.7506 37.9375C14.3135 41.039 16.7071 43.6455 19.6645 45.4664C22.6219 47.2873 26.027 48.2509 29.5 48.25C32.973 48.2509 36.3781 47.2873 39.3355 45.4664C42.2929 43.6455 44.6865 41.039 46.2494 37.9375H12.7506Z" fill="#32794F"/>
</svg>
