<svg width="58" height="58" viewBox="0 0 58 58" fill="none" xmlns="http://www.w3.org/2000/svg">
<rect width="58" height="58" rx="12" fill="#F8DEBD"/>
<path d="M45.7646 37.7693C45.7646 33.5508 44.0888 29.5051 41.1059 26.5222C38.123 23.5393 34.0773 21.8635 29.8588 21.8635C25.6403 21.8635 21.5946 23.5393 18.6117 26.5222C15.6288 29.5051 13.953 33.5508 13.953 37.7693H45.7646Z" fill="#FDCC8D"/>
<path d="M47.355 20.273L53.7173 13.9106Z" fill="#FDCC8D"/>
<path d="M47.355 20.273L53.7173 13.9106" stroke="#FDCC8D" stroke-width="2" stroke-linecap="round"/>
<path d="M7.59058 37.7693H52.1268Z" fill="#FDCC8D"/>
<path d="M7.59058 37.7693H52.1268" stroke="#FDCC8D" stroke-width="2" stroke-linecap="square"/>
<path d="M7 13.9106L13.3623 20.273Z" fill="#FDCC8D"/>
<path d="M7 13.9106L13.3623 20.273" stroke="#FDCC8D" stroke-width="2" stroke-linecap="round"/>
<path d="M30.2465 14.9976V5.99995Z" fill="#FDCC8D"/>
<path d="M30.2465 14.9976V5.99995" stroke="#FDCC8D" stroke-width="2" stroke-linecap="round"/>
<path d="M41.5 36.9375C41.2969 36.9375 41.1211 36.8633 40.9727 36.7148C40.8242 36.5664 40.75 36.3906 40.75 36.1875C40.75 35.7891 40.8242 35.4063 40.9727 35.0391C41.1211 34.6719 41.3398 34.3477 41.6289 34.0664L42.5547 33.1289C42.8516 32.832 43 32.4766 43 32.0625C43 31.8594 43.0742 31.6836 43.2227 31.5352C43.3711 31.3867 43.5469 31.3125 43.75 31.3125C43.9531 31.3125 44.1289 31.3867 44.2773 31.5352C44.4258 31.6836 44.5 31.8594 44.5 32.0625C44.5 32.4609 44.4258 32.8437 44.2773 33.2109C44.1289 33.5781 43.9102 33.9023 43.6211 34.1836L42.6953 35.1211C42.3984 35.418 42.25 35.7734 42.25 36.1875C42.25 36.3906 42.1758 36.5664 42.0273 36.7148C41.8789 36.8633 41.7031 36.9375 41.5 36.9375ZM37 36.9375C36.7969 36.9375 36.6211 36.8633 36.4727 36.7148C36.3242 36.5664 36.25 36.3906 36.25 36.1875C36.25 35.7891 36.3242 35.4063 36.4727 35.0391C36.6211 34.6719 36.8398 34.3477 37.1289 34.0664L38.0547 33.1289C38.3516 32.832 38.5 32.4766 38.5 32.0625C38.5 31.8594 38.5742 31.6836 38.7227 31.5352C38.8711 31.3867 39.0469 31.3125 39.25 31.3125C39.4531 31.3125 39.6289 31.3867 39.7773 31.5352C39.9258 31.6836 40 31.8594 40 32.0625C40 32.4609 39.9258 32.8437 39.7773 33.2109C39.6289 33.5781 39.4102 33.9023 39.1211 34.1836L38.1953 35.1211C37.8984 35.418 37.75 35.7734 37.75 36.1875C37.75 36.3906 37.6758 36.5664 37.5273 36.7148C37.3789 36.8633 37.2031 36.9375 37 36.9375ZM46.75 39C47.0625 39 47.3555 39.0586 47.6289 39.1758C47.9023 39.293 48.1406 39.4531 48.3438 39.6562C48.5469 39.8594 48.707 40.0977 48.8242 40.3711C48.9414 40.6445 49 40.9375 49 41.25V45.75C49 46.0625 48.9414 46.3555 48.8242 46.6289C48.707 46.9023 48.5469 47.1406 48.3438 47.3438C48.1406 47.5469 47.9023 47.707 47.6289 47.8242C47.3555 47.9414 47.0625 48 46.75 48H46.082C46.0664 48.0547 46.0547 48.1055 46.0469 48.1523C46.0391 48.1992 46.0234 48.2461 46 48.293V48.75C46 49.2656 45.9023 49.75 45.707 50.2031C45.5117 50.6563 45.2422 51.0547 44.8984 51.3984C44.5547 51.7422 44.1563 52.0117 43.7031 52.207C43.25 52.4023 42.7656 52.5 42.25 52.5H37.75C37.1406 52.5 36.5781 52.3633 36.0625 52.0898C35.5469 51.8164 35.1172 51.4531 34.7734 51H28.9141C28.3984 51 27.9141 50.9023 27.4609 50.707C27.0078 50.5117 26.6094 50.2461 26.2656 49.9102C25.9219 49.5742 25.6523 49.1758 25.457 48.7148C25.2617 48.2539 25.1641 47.7656 25.1641 47.25V46.5H28.1641C28.1641 45.8828 28.2812 45.3008 28.5156 44.7539C28.75 44.207 29.0742 43.7305 29.4883 43.3242C29.9023 42.918 30.3789 42.5937 30.918 42.3516C31.457 42.1094 32.0391 41.9922 32.6641 42C32.8984 42 33.125 42.0195 33.3438 42.0586C33.5625 42.0977 33.7813 42.1523 34 42.2227V37.5H46V39H46.75ZM32.6641 43.5C32.25 43.5 31.8633 43.5781 31.5039 43.7344C31.1445 43.8906 30.8242 44.1055 30.543 44.3789C30.2617 44.6523 30.0469 44.9688 29.8984 45.3281C29.75 45.6875 29.6719 46.0781 29.6641 46.5H34V43.8281C33.7969 43.7266 33.5859 43.6484 33.3672 43.5938C33.1484 43.5391 32.9141 43.5078 32.6641 43.5ZM28.9141 49.5H34.082C34.0273 49.2734 34 49.0234 34 48.75V48H26.793C26.8711 48.2187 26.9805 48.418 27.1211 48.5977C27.2617 48.7773 27.4219 48.9375 27.6016 49.0781C27.7812 49.2188 27.9844 49.3203 28.2109 49.3828C28.4375 49.4453 28.6719 49.4844 28.9141 49.5ZM34.3398 50.2852V50.2969L34.3516 50.3203V50.3086L34.3398 50.2852ZM44.5 48.75V39H35.5V48.75C35.5 49.0625 35.5586 49.3555 35.6758 49.6289C35.793 49.9023 35.9531 50.1406 36.1562 50.3438C36.3594 50.5469 36.5977 50.707 36.8711 50.8242C37.1445 50.9414 37.4375 51 37.75 51H42.25C42.5625 51 42.8555 50.9414 43.1289 50.8242C43.4023 50.707 43.6406 50.5469 43.8438 50.3438C44.0469 50.1406 44.207 49.9023 44.3242 49.6289C44.4414 49.3555 44.5 49.0625 44.5 48.75ZM47.5 45.75V41.25C47.5 41.0469 47.4258 40.8711 47.2773 40.7227C47.1289 40.5742 46.9531 40.5 46.75 40.5H46V46.5H46.75C46.9531 46.5 47.1289 46.4258 47.2773 46.2773C47.4258 46.1289 47.5 45.9531 47.5 45.75Z" fill="#DFA458"/>
</svg>
