<svg width="58" height="58" viewBox="0 0 58 58" fill="none" xmlns="http://www.w3.org/2000/svg">
<rect width="58" height="58" rx="12" fill="#F8DEBD"/>
<path d="M46.5157 20.5984L30.9485 11.5984C30.0485 11.0922 28.9516 11.0922 28.0516 11.6125L12.4985 20.5984C12.2696 20.7314 12.0854 20.9294 11.9692 21.1672C11.8531 21.4051 11.8102 21.6721 11.846 21.9343H11.8235V25.5062C11.8235 25.8086 11.9247 26.1109 12.1272 26.3528C10.8321 27.129 9.88708 28.524 9.85474 30.5406C9.88427 32.3912 10.6858 33.7187 11.8235 34.5245V37.389C11.8235 37.839 12.0485 38.289 12.4985 38.5422L28.0657 47.5422C28.9516 48.0625 30.0626 48.0625 30.9485 47.5422L46.5157 38.5422C46.9657 38.289 47.1907 37.839 47.1907 37.389V34.5301C48.3297 33.7257 49.1369 32.3954 49.1735 30.5406C49.1285 28.5297 48.1793 27.1347 46.8813 26.3584C47.0817 26.1197 47.1912 25.8179 47.1907 25.5062V21.9343H47.1696C47.2053 21.6719 47.1622 21.4048 47.0457 21.167C46.9293 20.9291 46.7448 20.7312 46.5157 20.5984ZM13.3015 21.7586L28.7561 12.8289C29.2188 12.5617 29.7827 12.5589 30.2524 12.8204L45.7127 21.7586L30.244 30.7023L30.2369 30.7065C29.7897 30.9681 29.2244 30.9681 28.7772 30.7065L13.3015 21.7586ZM12.8079 26.8379L28.0657 35.6593C28.9516 36.1797 30.0626 36.1797 30.9485 35.6593L46.1922 26.8464L46.5016 27.025C47.3875 27.5453 47.3875 28.825 46.5016 29.3453L30.9344 38.3453C30.0485 38.8656 28.9375 38.8656 28.0516 38.3453L12.4844 29.3453C12.282 29.2267 12.1141 29.0573 11.9974 28.8538C11.8807 28.6502 11.8193 28.4197 11.8193 28.1851C11.8193 27.9505 11.8807 27.72 11.9974 27.5165C12.1141 27.313 12.282 27.1435 12.4844 27.025L12.8079 26.8379ZM13.0905 35.1657C13.8407 35.4179 14.6366 35.5048 15.4235 35.4203C16.1688 35.3359 16.8719 35.7297 17.1954 36.4047C18.25 38.6406 20.8235 39.4843 23.0313 38.9218C23.7625 38.739 24.5219 39.0203 24.9157 39.639C25.2761 40.4787 25.8601 41.2033 26.604 41.734C27.3479 42.2646 28.2232 42.5809 29.1344 42.6484H29.1485C29.261 42.6625 29.3735 42.6625 29.5 42.6625H29.5282C29.6407 42.6625 29.7532 42.6625 29.8797 42.6484H29.8938C30.8051 42.5809 31.6803 42.2646 32.4242 41.734C33.1681 41.2033 33.7521 40.4787 34.1125 39.639C34.5063 39.0203 35.2657 38.739 35.9969 38.9218C38.1907 39.4843 40.7782 38.6406 41.8329 36.4047C42.1563 35.7297 42.8594 35.3359 43.6047 35.4203C44.3585 35.5008 45.1208 35.4242 45.8435 35.1953L44.5146 35.9645C44.2581 36.9664 43.8026 37.9064 43.1752 38.7286C42.5477 39.5507 41.7612 40.2382 40.8625 40.75C38.9227 41.8695 36.6393 42.2378 34.4458 41.785L30.9344 43.8156C30.0485 44.3359 28.9375 44.3359 28.0516 43.8156L24.543 41.7878C22.3528 42.2369 20.0739 41.8676 18.1375 40.75C17.2401 40.2391 16.4545 39.5532 15.8274 38.7328C15.2003 37.9124 14.7444 36.9743 14.4869 35.9743L13.0905 35.1657Z" fill="#FFBA63"/>
</svg>
