<svg width="58" height="58" viewBox="0 0 58 58" fill="none" xmlns="http://www.w3.org/2000/svg">
<rect width="58" height="58" rx="12" fill="#3138E1"/>
<path d="M34.3334 21.8333H45.6667M35.7501 21.8333V25.7843C35.7501 26.9032 35.4188 27.997 34.7981 28.9279L33.8687 30.3219C33.2478 31.2532 32.9165 32.3476 32.9167 33.4669V47.3333C32.9167 48.0847 33.2153 48.8054 33.7466 49.3367C34.278 49.8681 34.9986 50.1666 35.7501 50.1666H44.2501C45.0015 50.1666 45.7222 49.8681 46.2536 49.3367C46.7849 48.8054 47.0834 48.0847 47.0834 47.3333V33.4655C47.0834 32.3466 46.7521 31.2528 46.1314 30.3219L45.2021 28.9279C44.5811 27.9966 44.2498 26.9023 44.2501 25.7829V21.8333" stroke="#F8F8F8" stroke-width="2" stroke-linecap="round" stroke-linejoin="round"/>
<path d="M32.9167 40.25C34.0384 39.7801 35.2423 39.5381 36.4584 39.5381C37.6745 39.5381 38.8784 39.7801 40.0001 40.25C41.1217 40.7199 42.3257 40.9619 43.5417 40.9619C44.7578 40.9619 45.9618 40.7199 47.0834 40.25" stroke="#F8F8F8" stroke-width="2" stroke-linecap="round" stroke-linejoin="round"/>
<path opacity="0.2" d="M24.4744 17.2871C24.041 18.7122 23.2459 20.0008 22.1665 21.0273C21.0872 22.0538 19.7604 22.7833 18.3153 23.1447C16.8703 23.5061 15.3563 23.4871 13.9208 23.0896C12.4852 22.692 11.1771 21.9295 10.1239 20.8762C9.07059 19.823 8.30805 18.5149 7.91051 17.0793C7.51296 15.6438 7.49397 14.1298 7.85538 12.6848C8.21678 11.2397 8.94627 9.9129 9.97279 8.83354C10.9993 7.75418 12.2879 6.95906 13.713 6.52563C13.2611 8.02069 13.2233 9.61033 13.6036 11.1252C13.9839 12.64 14.768 14.0233 15.8724 15.1277C16.9768 16.2321 18.3601 17.0162 19.8749 17.3965C21.3898 17.7768 22.9794 17.739 24.4744 17.2871Z" fill="#F8F8F8"/>
<path d="M24.9821 16.7785C24.8899 16.6861 24.7743 16.6206 24.6477 16.5889C24.521 16.5573 24.3882 16.5607 24.2634 16.5988C22.8929 17.0131 21.4356 17.0479 20.0469 16.6993C18.6582 16.3508 17.3901 15.632 16.3777 14.6196C15.3653 13.6072 14.6465 12.3391 14.298 10.9504C13.9495 9.56171 13.9842 8.10448 14.3985 6.73398C14.437 6.60909 14.4407 6.47609 14.4092 6.34928C14.3777 6.22246 14.3122 6.10662 14.2198 6.01423C14.1274 5.92183 14.0116 5.85637 13.8848 5.82489C13.758 5.7934 13.625 5.79709 13.5001 5.83554C11.6053 6.41597 9.94185 7.57922 8.74645 9.15976C7.70104 10.5477 7.06336 12.1997 6.90507 13.9301C6.74677 15.6605 7.07413 17.4007 7.85035 18.9553C8.62658 20.5099 9.82093 21.8173 11.2992 22.7305C12.7775 23.6437 14.4811 24.1267 16.2188 24.125C18.2459 24.1312 20.2192 23.4722 21.8358 22.2491C23.4163 21.0537 24.5796 19.3902 25.16 17.4955C25.198 17.371 25.2015 17.2386 25.1702 17.1124C25.1389 16.9861 25.0739 16.8707 24.9821 16.7785ZM20.9715 21.1009C19.4491 22.2475 17.5638 22.8057 15.6626 22.6725C13.7614 22.5394 11.9722 21.724 10.6245 20.3764C9.27677 19.0288 8.46121 17.2397 8.32793 15.3385C8.19465 13.4373 8.75263 11.5519 9.89914 10.0294C10.6461 9.04301 11.6118 8.24339 12.7202 7.69351C12.6571 8.13664 12.6253 8.58367 12.625 9.03128C12.6276 11.5086 13.6129 13.8837 15.3646 15.6354C17.1163 17.3871 19.4914 18.3724 21.9688 18.375C22.4173 18.3749 22.8652 18.3431 23.3092 18.2798C22.7588 19.3884 21.9586 20.3541 20.9715 21.1009Z" fill="#F8F8F8"/>
</svg>
