<svg width="67" height="27" viewBox="0 0 67 27" fill="none" xmlns="http://www.w3.org/2000/svg">
<rect width="67" height="27" rx="13.5" fill="url(#paint0_linear_330_13401)"/>
<path d="M15.0371 20V8.72H22.4771V10.336H17.1011V13.536H22.1091V15.152H17.1011V20H15.0371ZM24.1933 20V8.72H29.1213C30.3586 8.72 31.3133 9.01333 31.9853 9.6C32.668 10.1867 33.0093 11.0027 33.0093 12.048C33.0093 12.7413 32.8546 13.3333 32.5453 13.824C32.2466 14.3147 31.8146 14.6933 31.2493 14.96C30.684 15.216 30.0173 15.344 29.2493 15.344L29.4733 15.04H30.0173C30.4653 15.04 30.8653 15.1573 31.2173 15.392C31.5693 15.6267 31.8573 15.984 32.0813 16.464L33.7293 20H31.4573L29.7933 16.336C29.644 15.9627 29.4146 15.7173 29.1053 15.6C28.8066 15.4827 28.444 15.424 28.0173 15.424H26.2573V20H24.1933ZM26.2573 13.904H28.7853C29.5106 13.904 30.06 13.7547 30.4333 13.456C30.8173 13.1467 31.0093 12.6987 31.0093 12.112C31.0093 11.5253 30.8173 11.0827 30.4333 10.784C30.06 10.4853 29.5106 10.336 28.7853 10.336H26.2573V13.904ZM35.4277 20V8.72H43.0277V10.336H37.4117V13.456H42.6597V15.088H37.4117V18.368H43.0277V20H35.4277ZM44.9433 20V8.72H52.5433V10.336H46.9273V13.456H52.1753V15.088H46.9273V18.368H52.5433V20H44.9433Z" fill="white"/>
<defs>
<linearGradient id="paint0_linear_330_13401" x1="33.5" y1="7.43549e-07" x2="25.8666" y2="22.8345" gradientUnits="userSpaceOnUse">
<stop stop-color="#9FE860"/>
<stop offset="1" stop-color="#50CE3B"/>
</linearGradient>
</defs>
</svg>
