<svg width="58" height="58" viewBox="0 0 58 58" fill="none" xmlns="http://www.w3.org/2000/svg">
<rect width="58" height="58" rx="12" fill="#151DDD" fill-opacity="0.88"/>
<path opacity="0.2" d="M24.4744 17.2871C24.041 18.7122 23.2459 20.0008 22.1665 21.0273C21.0872 22.0538 19.7604 22.7833 18.3153 23.1447C16.8703 23.5061 15.3563 23.4871 13.9208 23.0896C12.4852 22.692 11.1771 21.9295 10.1239 20.8762C9.07059 19.823 8.30805 18.5149 7.91051 17.0793C7.51296 15.6438 7.49397 14.1298 7.85538 12.6848C8.21678 11.2397 8.94627 9.9129 9.97279 8.83354C10.9993 7.75418 12.2879 6.95906 13.713 6.52563C13.2611 8.02069 13.2233 9.61033 13.6036 11.1252C13.9839 12.64 14.768 14.0233 15.8724 15.1277C16.9768 16.2321 18.3601 17.0162 19.8749 17.3965C21.3898 17.7768 22.9794 17.739 24.4744 17.2871Z" fill="#F8F8F8"/>
<path d="M24.9821 16.7785C24.8899 16.6861 24.7743 16.6206 24.6477 16.5889C24.521 16.5573 24.3882 16.5607 24.2634 16.5988C22.8929 17.0131 21.4356 17.0479 20.0469 16.6993C18.6582 16.3508 17.3901 15.632 16.3777 14.6196C15.3653 13.6072 14.6465 12.3391 14.298 10.9504C13.9495 9.56171 13.9842 8.10448 14.3985 6.73398C14.437 6.60909 14.4407 6.47609 14.4092 6.34928C14.3777 6.22246 14.3122 6.10662 14.2198 6.01423C14.1274 5.92183 14.0116 5.85637 13.8848 5.82489C13.758 5.7934 13.625 5.79709 13.5001 5.83554C11.6053 6.41597 9.94185 7.57922 8.74645 9.15976C7.70104 10.5477 7.06336 12.1997 6.90507 13.9301C6.74677 15.6605 7.07413 17.4007 7.85035 18.9553C8.62658 20.5099 9.82093 21.8173 11.2992 22.7305C12.7775 23.6437 14.4811 24.1267 16.2188 24.125C18.2459 24.1312 20.2192 23.4722 21.8358 22.2491C23.4163 21.0537 24.5796 19.3902 25.16 17.4955C25.198 17.371 25.2015 17.2386 25.1702 17.1124C25.1389 16.9861 25.0739 16.8707 24.9821 16.7785ZM20.9715 21.1009C19.4491 22.2475 17.5638 22.8057 15.6626 22.6725C13.7614 22.5394 11.9722 21.724 10.6245 20.3764C9.27677 19.0288 8.46121 17.2397 8.32793 15.3385C8.19465 13.4373 8.75263 11.5519 9.89914 10.0294C10.6461 9.04301 11.6118 8.24339 12.7202 7.69351C12.6571 8.13664 12.6253 8.58367 12.625 9.03128C12.6276 11.5086 13.6129 13.8837 15.3646 15.6354C17.1163 17.3871 19.4914 18.3724 21.9688 18.375C22.4173 18.3749 22.8652 18.3431 23.3092 18.2798C22.7588 19.3884 21.9586 20.3541 20.9715 21.1009Z" fill="#F8F8F8"/>
<path d="M31.0267 34.2816L31.6983 33.597C32.4475 32.8478 33.6875 32.8478 34.4625 33.6487L34.4883 33.6874C35.1212 34.3333 35.9608 34.6433 36.8779 34.7337C38.1308 34.8499 39.345 35.5216 40.1458 36.7358C41.0242 38.1308 41.0112 39.9908 40.0942 41.3728C39.7483 41.9198 39.2831 42.3815 38.7335 42.7233C38.1839 43.065 37.5641 43.2781 36.9206 43.3464C36.277 43.4147 35.6263 43.3366 35.0172 43.1179C34.4081 42.8991 33.8564 42.5454 33.4033 42.0833C32.68 41.3728 32.2667 40.4558 32.1633 39.4999C32.06 38.557 31.6854 37.6658 31.0267 37.007C30.2775 36.2708 30.2775 35.0308 31.0267 34.2816ZM36.4517 44.6666C34.9404 44.6666 33.5325 44.0853 32.4862 43.0133C31.5821 42.0833 31.0137 40.9208 30.8717 39.6549C30.8329 39.2674 30.7167 38.7637 30.4067 38.2987C29.6317 39.3708 29.1667 40.6624 29.1667 42.0833C29.1667 44.2016 30.2 46.0745 31.7887 47.2499H48.5417V45.9583C48.5417 41.3083 45.4546 37.3687 41.2308 36.077C42.3804 37.8853 42.3546 40.3008 41.1792 42.0833C40.1458 43.6978 38.3633 44.6666 36.4517 44.6666ZM43.0908 33.7649H44.7312C45.855 33.7649 46.8367 34.5528 46.8367 35.9608V36.9166H48.4512V35.6249C48.4512 33.6874 46.7333 32.2149 44.7312 32.2149H43.0908C42.0187 32.2149 41.1017 31.1558 41.1017 30.0708C41.1017 28.9858 42.0187 28.1849 43.0908 28.1849V26.5833C41.1017 26.5833 39.5 28.1849 39.5 30.1741C39.5 32.1633 41.1017 33.7649 43.0908 33.7649ZM29.8125 33.752C29.89 33.6228 29.9933 33.4937 30.1096 33.3645L30.7812 32.6928C30.8975 32.5766 31.0267 32.4862 31.1558 32.3958L29.3346 30.5487C29.5154 30.1999 29.4508 29.7478 29.1667 29.4508C28.9817 29.2707 28.7337 29.1699 28.4756 29.1699C28.2175 29.1699 27.9695 29.2707 27.7846 29.4508C27.6037 29.6316 27.5133 29.8512 27.5004 30.0837C27.2679 30.0966 27.0483 30.187 26.8675 30.3678C26.4929 30.7424 26.4929 31.3624 26.8675 31.7499C27.1646 32.0341 27.6037 32.0987 27.9654 31.9178L29.8125 33.752ZM47.7537 29.6703C48.4125 29.0116 48.8258 28.1203 48.8258 27.1258H47.2112C47.2112 28.1978 46.3071 29.102 45.235 29.102V30.7037C47.6375 30.7037 49.5233 32.667 49.5233 35.0695V38.2083H51.125V35.0695C51.1314 33.9428 50.8181 32.8374 50.2213 31.8817C49.6246 30.9259 48.7689 30.1591 47.7537 29.6703ZM30.4583 51.1249H48.5417C49.9754 51.1249 51.125 49.9753 51.125 48.5416H27.875C27.875 49.2267 28.1472 49.8838 28.6316 50.3683C29.1161 50.8527 29.7732 51.1249 30.4583 51.1249Z" fill="#F8F8F8"/>
</svg>
