<svg width="99" height="27" viewBox="0 0 99 27" fill="none" xmlns="http://www.w3.org/2000/svg">
<rect width="99" height="27" rx="13.5" fill="url(#paint0_linear_330_14810)"/>
<path d="M7.54488 20V8.72H12.5529C13.7902 8.72 14.7342 9.01867 15.3849 9.616C16.0355 10.2133 16.3609 11.0347 16.3609 12.08C16.3609 13.1147 16.0355 13.936 15.3849 14.544C14.7342 15.152 13.7902 15.456 12.5529 15.456H9.60888V20H7.54488ZM9.60888 13.824H12.3129C12.9955 13.824 13.5075 13.6747 13.8489 13.376C14.1902 13.0667 14.3609 12.6347 14.3609 12.08C14.3609 11.5253 14.1902 11.0987 13.8489 10.8C13.5075 10.4907 12.9955 10.336 12.3129 10.336H9.60888V13.824ZM18.2011 20V8.72H20.2651V18.256H25.5771V20H18.2011ZM25.6562 20L30.7603 8.72H32.4883L37.6563 20H35.5603L34.1843 16.832L35.0163 17.392H28.2483L29.1123 16.832L27.7363 20H25.6562ZM31.6083 10.928L29.3523 16.272L28.9363 15.776H34.3123L33.9763 16.272L31.6723 10.928H31.6083ZM40.3103 20V10.416H36.5823V8.72H46.1023V10.416H42.3743V20H40.3103ZM47.5605 20V8.72H49.6245V20H47.5605ZM52.1074 20V8.72H53.6594L60.2034 17.184H59.7874V8.72H61.7074V20H60.1554L53.6274 11.536H54.0274V20H52.1074ZM68.8895 20.16C67.2788 20.16 66.0788 19.76 65.2895 18.96C64.5108 18.1493 64.1215 16.9547 64.1215 15.376V8.72H66.1855V15.36C66.1855 16.3627 66.3988 17.12 66.8255 17.632C67.2628 18.144 67.9508 18.4 68.8895 18.4C69.7855 18.4 70.4575 18.144 70.9055 17.632C71.3642 17.12 71.5935 16.3627 71.5935 15.36V8.72H73.6255V15.376C73.6255 16.9547 73.2255 18.1493 72.4255 18.96C71.6362 19.76 70.4575 20.16 68.8895 20.16ZM76.0453 20V8.72H77.8533L81.9973 18.048H81.5013L85.6453 8.72H87.4373V20H85.5653V11.632H86.1413L82.3493 20H81.1173L77.3253 11.632H77.9173V20H76.0453Z" fill="white"/>
<defs>
<linearGradient id="paint0_linear_330_14810" x1="49.5" y1="7.43549e-07" x2="44.0363" y2="24.1502" gradientUnits="userSpaceOnUse">
<stop stop-color="#E1E1E1"/>
<stop offset="1" stop-color="#888888"/>
</linearGradient>
</defs>
</svg>
