<svg width="92" height="27" viewBox="0 0 92 27" fill="none" xmlns="http://www.w3.org/2000/svg">
<rect width="92" height="27" rx="13.5" fill="url(#paint0_linear_330_14803)"/>
<path d="M8.42769 20V8.72H13.4357C14.673 8.72 15.617 9.01867 16.2677 9.616C16.9184 10.2133 17.2437 11.0347 17.2437 12.08C17.2437 13.1147 16.9184 13.936 16.2677 14.544C15.617 15.152 14.673 15.456 13.4357 15.456H10.4917V20H8.42769ZM10.4917 13.824H13.1957C13.8784 13.824 14.3904 13.6747 14.7317 13.376C15.073 13.0667 15.2437 12.6347 15.2437 12.08C15.2437 11.5253 15.073 11.0987 14.7317 10.8C14.3904 10.4907 13.8784 10.336 13.1957 10.336H10.4917V13.824ZM19.0839 20V8.72H24.0119C25.2493 8.72 26.2039 9.01333 26.8759 9.6C27.5586 10.1867 27.8999 11.0027 27.8999 12.048C27.8999 12.7413 27.7453 13.3333 27.4359 13.824C27.1373 14.3147 26.7053 14.6933 26.1399 14.96C25.5746 15.216 24.9079 15.344 24.1399 15.344L24.3639 15.04H24.9079C25.3559 15.04 25.7559 15.1573 26.1079 15.392C26.4599 15.6267 26.7479 15.984 26.9719 16.464L28.6199 20H26.3479L24.6839 16.336C24.5346 15.9627 24.3053 15.7173 23.9959 15.6C23.6973 15.4827 23.3346 15.424 22.9079 15.424H21.1479V20H19.0839ZM21.1479 13.904H23.6759C24.4013 13.904 24.9506 13.7547 25.3239 13.456C25.7079 13.1467 25.8999 12.6987 25.8999 12.112C25.8999 11.5253 25.7079 11.0827 25.3239 10.784C24.9506 10.4853 24.4013 10.336 23.6759 10.336H21.1479V13.904ZM30.3183 20V8.72H37.9183V10.336H32.3023V13.456H37.5503V15.088H32.3023V18.368H37.9183V20H30.3183ZM39.8499 20V8.72H41.6579L45.8019 18.048H45.3059L49.4499 8.72H51.2419V20H49.3699V11.632H49.9459L46.1539 20H44.9219L41.1299 11.632H41.7219V20H39.8499ZM53.7558 20V8.72H55.8198V20H53.7558ZM63.0067 20.16C61.396 20.16 60.196 19.76 59.4067 18.96C58.628 18.1493 58.2387 16.9547 58.2387 15.376V8.72H60.3027V15.36C60.3027 16.3627 60.516 17.12 60.9427 17.632C61.38 18.144 62.068 18.4 63.0067 18.4C63.9027 18.4 64.5747 18.144 65.0227 17.632C65.4814 17.12 65.7107 16.3627 65.7107 15.36V8.72H67.7427V15.376C67.7427 16.9547 67.3427 18.1493 66.5427 18.96C65.7534 19.76 64.5747 20.16 63.0067 20.16ZM70.1624 20V8.72H71.9704L76.1144 18.048H75.6184L79.7624 8.72H81.5544V20H79.6824V11.632H80.2584L76.4664 20H75.2344L71.4424 11.632H72.0344V20H70.1624Z" fill="white"/>
<defs>
<linearGradient id="paint0_linear_330_14803" x1="46" y1="7.43549e-07" x2="40.1654" y2="23.9658" gradientUnits="userSpaceOnUse">
<stop stop-color="#FFA935"/>
<stop offset="1" stop-color="#FDD00E"/>
</linearGradient>
</defs>
</svg>
