<svg width="30" height="29" viewBox="0 0 30 29" fill="none" xmlns="http://www.w3.org/2000/svg">
<g clip-path="url(#clip0_13_1996)">
<path d="M21.25 4.39062H26.25C26.5815 4.39062 26.8995 4.51409 27.1339 4.73386C27.3683 4.95363 27.5 5.2517 27.5 5.5625V24.3125C27.5 24.6233 27.3683 24.9214 27.1339 25.1411C26.8995 25.3609 26.5815 25.4844 26.25 25.4844H3.75C3.41848 25.4844 3.10054 25.3609 2.86612 25.1411C2.6317 24.9214 2.5 24.6233 2.5 24.3125V5.5625C2.5 5.2517 2.6317 4.95363 2.86612 4.73386C3.10054 4.51409 3.41848 4.39062 3.75 4.39062H8.75V2.04688H11.25V4.39062H18.75V2.04688H21.25V4.39062ZM5 11.4219V23.1406H25V11.4219H5ZM7.5 16.1094H13.75V20.7969H7.5V16.1094Z" fill="#707070"/>
</g>
<defs>
<clipPath id="clip0_13_1996">
<rect width="30" height="28.125" fill="white" transform="translate(0 0.875)"/>
</clipPath>
</defs>
</svg>
