<svg width="30" height="29" viewBox="0 0 30 29" fill="none" xmlns="http://www.w3.org/2000/svg">
<g clip-path="url(#clip0_13_2006)">
<path d="M2.5 10.7899C2.49934 9.86665 2.69294 8.9524 3.06971 8.09945C3.44648 7.24649 3.99902 6.47159 4.69569 5.81912C5.39236 5.16664 6.21947 4.64941 7.12967 4.29704C8.03986 3.94468 9.01526 3.76409 10 3.76563H20C24.1413 3.76563 27.5 6.92384 27.5 10.7899V24.8594H10C5.85875 24.8594 2.5 21.7012 2.5 17.8352V10.7899ZM25 22.5156V10.7899C24.9967 9.54825 24.4686 8.35849 23.5314 7.4812C22.5943 6.60391 21.3244 6.11062 20 6.10938H10C9.34356 6.10784 8.69325 6.2278 8.08637 6.46238C7.47949 6.69697 6.92798 7.04156 6.46345 7.47639C5.99893 7.91123 5.63054 8.42776 5.37941 8.99636C5.12827 9.56496 4.99934 10.1744 5 10.7899V17.8352C5.00331 19.0768 5.53139 20.2665 6.46857 21.1438C7.40576 22.0211 8.67562 22.5144 10 22.5156H25ZM17.5 13.1406H20V15.4844H17.5V13.1406ZM10 13.1406H12.5V15.4844H10V13.1406Z" fill="#707070"/>
</g>
<defs>
<clipPath id="clip0_13_2006">
<rect width="30" height="28.125" fill="white" transform="translate(0 0.25)"/>
</clipPath>
</defs>
</svg>
