<svg width="30" height="29" viewBox="0 0 30 29" fill="none" xmlns="http://www.w3.org/2000/svg">
<g clip-path="url(#clip0_13_2001)">
<path d="M15 26.4062C8.09625 26.4062 2.5 21.1598 2.5 14.6875C2.5 9.43984 6.17875 4.99844 11.25 3.50547V5.99453C9.10116 6.81255 7.32225 8.30513 6.21757 10.2169C5.1129 12.1287 4.7511 14.341 5.19407 16.4752C5.63703 18.6095 6.85724 20.5332 8.64596 21.9172C10.4347 23.3012 12.6808 24.0595 15 24.0625C16.9922 24.0624 18.9391 23.5047 20.5911 22.4608C22.243 21.4169 23.5249 19.9344 24.2725 18.2031H26.9275C25.335 22.9574 20.5975 26.4062 15 26.4062ZM27.4375 15.8594H13.75V3.02734C14.1613 2.98867 14.5787 2.96875 15 2.96875C21.9037 2.96875 27.5 8.21523 27.5 14.6875C27.5 15.0824 27.4788 15.4738 27.4375 15.8594ZM16.25 5.38516V13.5156H24.9225C24.6443 11.4503 23.6411 9.53047 22.071 8.05848C20.5008 6.58649 18.453 5.646 16.25 5.38516Z" fill="#707070"/>
</g>
<defs>
<clipPath id="clip0_13_2001">
<rect width="30" height="28.125" fill="white" transform="translate(0 0.625)"/>
</clipPath>
</defs>
</svg>
