<svg width="30" height="29" viewBox="0 0 30 29" fill="none" xmlns="http://www.w3.org/2000/svg">
<path d="M16.5304 4.8172L17.6875 3.74857C19.9599 1.65007 23.6593 1.59813 25.9447 3.68454C26.8107 4.47688 27.3862 5.49983 27.5903 6.6097C27.7945 7.71959 27.617 8.86064 27.0828 9.87259C26.8266 10.356 26.7403 10.9012 26.8358 11.4321C26.9315 11.963 27.2042 12.4531 27.6161 12.8339C28.3734 12.1329 28.9736 11.3009 29.3827 10.3856C29.7917 9.47028 30.0015 8.4895 30 7.4993C29.9984 6.50911 29.7857 5.52888 29.3739 4.61463C28.962 3.70037 28.3591 2.87001 27.5997 2.17099C24.404 -0.763637 19.2167 -0.705239 16.0299 2.23763L5.00029 12.4232L4.09356 11.5858C1.78269 9.4517 1.76795 5.96332 4.1196 3.86716C4.99007 3.09364 6.09907 2.5887 7.29353 2.42202C8.48799 2.25534 9.70902 2.43516 10.7881 2.93663C11.2806 3.16971 11.8403 3.25309 12.3872 3.17487C12.9341 3.09664 13.4403 2.86081 13.8334 2.50104L13.8615 2.47521C13.8703 2.46719 13.8772 2.45764 13.882 2.44711C13.8867 2.4366 13.8891 2.42532 13.8891 2.41393C13.8891 2.40254 13.8867 2.39125 13.882 2.38074C13.8772 2.37023 13.8703 2.36068 13.8615 2.35264C12.3435 0.985929 10.3092 0.21825 8.1891 0.212043C6.06904 0.205838 4.0295 0.961592 2.50209 2.31939C-0.788128 5.25264 -0.77637 10.1304 2.45745 13.1168L13.4838 23.2996L12.3125 24.3813C10.0401 26.4798 6.3406 26.5317 4.05532 24.4453C3.18934 23.653 2.61386 22.63 2.4097 21.5201C2.20556 20.4103 2.38298 19.2693 2.91707 18.2572C3.1733 17.7738 3.25966 17.2286 3.16409 16.6978C3.06851 16.1668 2.79576 15.6767 2.38395 15.296C1.62665 15.997 1.02633 16.8289 0.617286 17.7442C0.20824 18.6596 -0.00151172 19.6403 8.20148e-06 20.6306C0.00152813 21.6207 0.21429 22.601 0.626145 23.5152C1.038 24.4295 1.64087 25.2598 2.40032 25.9588C5.5959 28.8936 10.7833 28.8353 13.9702 25.8923L25.014 15.6932L25.9242 16.5337C28.1965 18.6322 28.2527 22.0486 25.9935 24.1591C25.1356 24.9589 24.0278 25.4903 22.826 25.6789C21.6243 25.8675 20.3887 25.7035 19.2928 25.2102C18.7693 24.9735 18.1786 24.8936 17.6035 24.9821C17.0284 25.0705 16.4975 25.3226 16.0852 25.7033C16.8443 26.4027 17.7451 26.9571 18.7362 27.3348C19.7275 27.7126 20.7894 27.9063 21.8617 27.905C22.9339 27.9034 23.9954 27.7069 24.9853 27.3266C25.9753 26.9463 26.8745 26.3895 27.6314 25.6881C30.8093 22.737 30.746 17.9464 27.5594 15.0035L16.5304 4.8172ZM15.1303 21.7783L6.64726 13.9443L14.8833 6.33845L23.3663 14.1725L15.1303 21.7783Z" fill="#707070"/>
</svg>
