<svg width="30" height="29" viewBox="0 0 30 29" fill="none" xmlns="http://www.w3.org/2000/svg">
<path d="M21.5625 7.91149C21.5625 9.54349 20.8711 11.1086 19.6404 12.2626C18.4097 13.4166 16.7405 14.0649 15 14.0649C13.2595 14.0649 11.5903 13.4166 10.3596 12.2626C9.1289 11.1086 8.4375 9.54349 8.4375 7.91149C8.4375 6.2795 9.1289 4.71435 10.3596 3.56036C11.5903 2.40636 13.2595 1.75806 15 1.75806C16.7405 1.75806 18.4097 2.40636 19.6404 3.56036C20.8711 4.71435 21.5625 6.2795 21.5625 7.91149ZM19.6875 7.91149C19.6875 6.74578 19.1936 5.62782 18.3146 4.80354C17.4355 3.97926 16.2432 3.51618 15 3.51618C13.7568 3.51618 12.5645 3.97926 11.6854 4.80354C10.8064 5.62782 10.3125 6.74578 10.3125 7.91149C10.3125 9.0772 10.8064 10.1952 11.6854 11.0194C12.5645 11.8437 13.7568 12.3068 15 12.3068C16.2432 12.3068 17.4355 11.8437 18.3146 11.0194C19.1936 10.1952 19.6875 9.0772 19.6875 7.91149ZM7.03125 15.8231C6.16101 15.8231 5.32641 16.1472 4.71106 16.7242C4.0957 17.3012 3.75 18.0838 3.75 18.8998V19.3393C3.75 21.4429 5.17781 23.2221 7.20469 24.4317C9.24281 25.6483 12.0019 26.3718 15 26.3718C17.9981 26.3718 20.7563 25.6483 22.7953 24.4317C24.8222 23.2221 26.25 21.4429 26.25 19.3393V18.8998C26.25 18.0838 25.9043 17.3012 25.2889 16.7242C24.6736 16.1472 23.839 15.8231 22.9688 15.8231H7.03125ZM5.625 18.8998C5.625 18.5501 5.77316 18.2147 6.03688 17.9674C6.3006 17.7201 6.65829 17.5812 7.03125 17.5812H22.9688C23.3417 17.5812 23.6994 17.7201 23.9631 17.9674C24.2268 18.2147 24.375 18.5501 24.375 18.8998V19.3393C24.375 20.6342 23.4937 21.9317 21.7884 22.9487C20.0944 23.9597 17.6972 24.6137 15 24.6137C12.3028 24.6137 9.90562 23.9597 8.21156 22.9487C6.50531 21.9325 5.625 20.6333 5.625 19.3393V18.8998Z" fill="#707070"/>
</svg>
