<svg width="30" height="29" viewBox="0 0 30 29" fill="none" xmlns="http://www.w3.org/2000/svg">
<g clip-path="url(#clip0_13_2016)">
<path d="M5 21.4688H7.5V23.8125H22.5V5.0625H7.5V7.40625H5V3.89062C5 3.57982 5.1317 3.28175 5.36612 3.06198C5.60054 2.84221 5.91848 2.71875 6.25 2.71875H23.75C24.0815 2.71875 24.3995 2.84221 24.6339 3.06198C24.8683 3.28175 25 3.57982 25 3.89062V24.9844C25 25.2952 24.8683 25.5932 24.6339 25.813C24.3995 26.0328 24.0815 26.1562 23.75 26.1562H6.25C5.91848 26.1562 5.60054 26.0328 5.36612 25.813C5.1317 25.5932 5 25.2952 5 24.9844V21.4688ZM7.5 13.2656H16.25V15.6094H7.5V19.125L1.25 14.4375L7.5 9.75V13.2656Z" fill="#707070"/>
</g>
<defs>
<clipPath id="clip0_13_2016">
<rect width="30" height="28.125" fill="white" transform="translate(0 0.375)"/>
</clipPath>
</defs>
</svg>
