<svg width="74" height="69" viewBox="0 0 74 69" fill="none" xmlns="http://www.w3.org/2000/svg">
<path d="M51.8141 3.50146C46.777 3.50146 42.6937 7.30319 42.6937 11.9929V17.6538C42.6937 22.3434 46.777 26.1452 51.8141 26.1452H63.9745C69.0116 26.1452 73.0949 22.3434 73.0949 17.6538V11.9929C73.0949 7.30319 69.0116 3.50146 63.9745 3.50146H51.8141Z" fill="white"/>
<path d="M9.25243 20.4842C4.2154 20.4842 0.13208 24.286 0.13208 28.9756V40.2975C0.13208 44.9871 4.2154 48.7889 9.25243 48.7889H24.453C29.49 48.7889 33.5734 44.9871 33.5734 40.2975V28.9756C33.5734 24.286 29.4901 20.4842 24.453 20.4842H9.25243Z" fill="white"/>
<rect x="57.8943" y="3.50146" width="15.2006" height="8.49139" fill="white"/>
<path d="M42.6936 14.8233C42.6936 9.16237 45.7338 6.33191 51.814 6.33191H57.8942V9.16237L51.814 9.16237C48.7739 9.16237 45.7338 11.9928 45.7338 14.8233V23.3147H42.6936V14.8233Z" fill="#32794F"/>
<path d="M45.7338 26.1451H42.6936V23.3147H39.6535V28.9756H36.6134V31.8061H39.6535V28.9756H45.7338V26.1451Z" fill="#32794F"/>
<path d="M73.0948 17.6538C73.0948 23.3147 70.0547 26.1451 63.9745 26.1451H45.7338V23.3147H63.9745C67.0146 23.3147 70.0547 20.4842 70.0547 17.6538V14.8233H73.0948V17.6538Z" fill="#32794F"/>
<path d="M54.8541 17.6538H51.814V20.4842H54.8541V17.6538Z" fill="#32794F"/>
<path d="M60.9343 17.6538H57.8942V20.4842H60.9343V17.6538Z" fill="#32794F"/>
<path d="M13.599 29.4902H16.9658V32.578H13.599V29.4902Z" fill="#32794F"/>
<path d="M13.599 38.7536H23.6993V41.8413H13.599V38.7536Z" fill="#32794F"/>
<path d="M10.2322 35.6658H13.5989L13.599 38.7536L10.2322 38.7536V35.6658Z" fill="#32794F"/>
<path d="M23.6992 35.6658H27.0659V38.7536L23.6993 38.7536L23.6992 35.6658Z" fill="#32794F"/>
<path d="M20.3325 29.4902H23.6993V32.578H20.3325V29.4902Z" fill="#32794F"/>
<path d="M3.1722 32.7496V39.0395H0.13208V32.7496C0.13208 26.4597 3.44863 23.3147 10.0816 23.3147H23.3475L23.3474 26.1452H10.0816C6.7651 26.1452 3.1722 29.6046 3.1722 32.7496Z" fill="#32794F"/>
<path d="M10.0817 48.7889C3.44874 48.7889 0.13208 45.3294 0.13208 39.0395H3.1722C3.1722 43.1279 6.21232 45.9584 10.6344 45.9584L30.5333 45.9584V48.7889L10.0817 48.7889Z" fill="#32794F"/>
<path d="M36.6135 48.7889H33.5734V32.7496C33.5734 26.1452 30.5333 23.3147 23.3475 23.3147L23.3474 26.1452C27.4931 26.1452 30.5333 28.9756 30.5333 32.7496V48.7889H33.5734V51.6193L36.6135 51.6193V48.7889Z" fill="#32794F"/>
<path d="M30.5333 11.9928C27.4932 11.9928 24.4531 14.8233 24.4531 17.6537V23.3147H21.413V17.6537C21.413 11.9928 24.4531 9.16235 30.5333 9.16235H45.7339V11.9928L30.5333 11.9928Z" fill="#32794F"/>
<path d="M21.413 60.1107C21.413 65.7716 24.4531 68.602 30.5333 68.602H36.6136V65.7716H30.5333C27.4932 65.7716 24.4531 62.9411 24.4531 60.1107V45.9584H21.413V60.1107Z" fill="#32794F"/>
<path d="M48.774 60.1107C48.774 62.9411 45.7339 65.7716 42.6938 65.7716V68.602C48.774 68.602 51.8141 65.7716 51.8141 60.1107V26.1451H48.774V60.1107Z" fill="#32794F"/>
<path d="M39.6537 60.1107H33.5734V62.9411H39.6537V60.1107Z" fill="#32794F"/>
<path d="M60.9346 3.50148V0.671021H70.0549V3.50148L73.0951 3.50148V11.9929H70.0549V14.8233H60.9346V11.9929L60.9346 9.16241H63.9747V11.9929H67.0148V9.16241H70.0549V6.33194H67.0148V3.50148H63.9747V6.33194H60.9346V11.9929L57.8943 11.9923V3.50092L60.9346 3.50148Z" fill="#32794F"/>
</svg>
