<svg width="72" height="72" viewBox="0 0 72 72" fill="none" xmlns="http://www.w3.org/2000/svg">
<path d="M59.3584 65.2941V56.3904C59.3584 47.9971 59.3584 43.7975 56.7496 41.1917C54.1437 38.5829 49.9441 38.5829 41.5509 38.5829L35.615 44.5187L29.6792 38.5829C21.2859 38.5829 17.0863 38.5829 14.4805 41.1917C11.8717 43.7975 11.8717 47.9971 11.8717 56.3904V65.2941M47.4867 38.5829V54.9064" stroke="#32794F" stroke-width="3.5" stroke-linecap="round" stroke-linejoin="round"/>
<path d="M25.2273 38.5829V50.4545M25.2273 50.4545C26.8016 50.4545 28.3114 51.0799 29.4246 52.1931C30.5378 53.3063 31.1632 54.8161 31.1632 56.3904V59.3583M25.2273 50.4545C23.6531 50.4545 22.1433 51.0799 21.0301 52.1931C19.9169 53.3063 19.2915 54.8161 19.2915 56.3904V59.3583M46.0028 19.2914V16.3235C46.0028 14.9594 45.7341 13.6086 45.212 12.3483C44.69 11.088 43.9249 9.94287 42.9603 8.97828C41.9957 8.01369 40.8505 7.24854 39.5902 6.72651C38.33 6.20448 36.9792 5.93579 35.615 5.93579C34.2509 5.93579 32.9001 6.20448 31.6398 6.72651C30.3795 7.24854 29.2344 8.01369 28.2698 8.97828C27.3052 9.94287 26.5401 11.088 26.0181 12.3483C25.496 13.6086 25.2273 14.9594 25.2273 16.3235V19.2914C25.2273 20.6555 25.496 22.0063 26.0181 23.2666C26.5401 24.5269 27.3052 25.672 28.2698 26.6366C29.2344 27.6012 30.3795 28.3664 31.6398 28.8884C32.9001 29.4104 34.2509 29.6791 35.615 29.6791C36.9792 29.6791 38.33 29.4104 39.5902 28.8884C40.8505 28.3664 41.9957 27.6012 42.9603 26.6366C43.9249 25.672 44.69 24.5269 45.212 23.2666C45.7341 22.0063 46.0028 20.6555 46.0028 19.2914ZM49.7127 57.1324C49.7127 57.7227 49.4781 58.2889 49.0607 58.7063C48.6432 59.1238 48.0771 59.3583 47.4867 59.3583C46.8964 59.3583 46.3302 59.1238 45.9127 58.7063C45.4953 58.2889 45.2608 57.7227 45.2608 57.1324C45.2608 56.542 45.4953 55.9758 45.9127 55.5584C46.3302 55.1409 46.8964 54.9064 47.4867 54.9064C48.0771 54.9064 48.6432 55.1409 49.0607 55.5584C49.4781 55.9758 49.7127 56.542 49.7127 57.1324Z" stroke="#32794F" stroke-width="3.5" stroke-linecap="round" stroke-linejoin="round"/>
</svg>
