<svg width="80" height="78" viewBox="0 0 80 78" fill="none" xmlns="http://www.w3.org/2000/svg">
<path d="M70.2364 56.5086C74.0114 54.2349 76.5293 50.1463 76.5293 45.4805C76.5293 38.3395 70.6312 32.5505 63.3555 32.5505C56.0797 32.5505 50.1816 38.3395 50.1816 45.4805C50.1816 50.1463 52.6996 54.2349 56.4746 56.5086C54.7195 57.2217 53.1036 58.2085 51.7113 59.4384C48.6231 62.1663 46.8881 65.8662 46.8881 69.724V77.8052H79.8228V69.724C79.8228 65.8662 78.0879 62.1663 74.9996 59.4384C73.6074 58.2085 71.9915 57.2217 70.2364 56.5086Z" fill="white"/>
<path d="M30.4207 33.3144H33.7142V43.0471H30.4207V33.3144Z" fill="#32794F"/>
<path d="M30.4207 46.2914H33.7142V49.5356H30.4207V46.2914Z" fill="#32794F"/>
<path d="M33.7142 20.3375V17.0933C40.3011 17.0933 43.5946 20.3375 43.5946 26.826L40.3011 26.826C40.3011 23.5817 37.0077 20.3375 33.7142 20.3375Z" fill="#32794F"/>
<path d="M33.7142 33.3144L33.7142 36.5587C40.3011 36.5587 43.5946 33.3144 43.5946 26.826L40.3011 26.826C40.3011 30.0702 37.0076 33.3144 33.7142 33.3144Z" fill="#32794F"/>
<path d="M33.7142 20.3375V17.0933C27.1273 17.0933 23.8338 20.3375 23.8338 26.826L27.1273 26.826C27.1273 23.5817 30.4207 20.3375 33.7142 20.3375Z" fill="#32794F"/>
<path d="M56.8122 6.69055L17.4655 6.69055V9.87526L56.8122 9.87526C60.0911 9.87526 63.37 13.06 63.37 16.2447V35.3529H66.6489V16.2447C66.6489 9.87526 63.37 6.69055 56.8122 6.69055Z" fill="#32794F"/>
<path d="M17.2469 55.1777C14.0991 55.1777 10.6599 52.2956 10.6599 49.2383V15.6077H7.36646V49.2383C7.36645 55.3529 10.5142 58.4102 16.8097 58.4102L35.6961 58.4102V55.1777H17.2469Z" fill="#32794F"/>
<path d="M38.0569 58.4102V55.1777L44.3524 55.0666V58.4102H38.0569Z" fill="#32794F"/>
<path d="M50.1816 42.248C50.1816 35.783 53.4751 32.5505 60.062 32.5505H66.6489C73.2359 32.5505 76.5293 35.783 76.5293 42.248H79.8228V48.7129H76.5293C76.5293 55.1779 73.2359 58.4104 66.6489 58.4104V55.1779C69.9424 55.1779 73.2359 51.9454 73.2359 48.7129V42.248C73.2359 39.0155 69.9424 35.783 66.6489 35.783H60.062C56.7685 35.783 53.4751 39.0155 53.4751 42.248V48.7129H46.8881V42.248H50.1816Z" fill="#32794F"/>
<rect x="0.779541" y="3.45825" width="16.4673" height="9.69744" fill="white"/>
<path fill-rule="evenodd" clip-rule="evenodd" d="M4.07302 3.46951V0.225708L13.9535 0.225708V3.45791H17.2469L17.2469 13.2029H13.9535V16.4467H4.07302V13.2029H0.779541V3.47008L4.07302 3.46951ZM7.36653 13.2024V9.95816H4.07305V6.71378H7.36653V3.46998H10.6599V6.71378H13.9534V6.69039L13.9534 9.95863L10.6599 9.95816V13.2024H7.36653Z" fill="#32794F"/>
</svg>
