<svg width="24" height="24" viewBox="0 0 24 24" fill="none" xmlns="http://www.w3.org/2000/svg">
<path d="M11.9998 21.0001C10.3458 21.0001 8.99985 19.6541 8.99985 18.0001V13.2361C7.85685 14.2601 5.97485 14.2151 4.87885 13.1211C4.31643 12.5585 4.00049 11.7955 4.00049 11.0001C4.00049 10.2046 4.31643 9.44164 4.87885 8.87906L11.9998 1.75806L19.1208 8.87906C19.6833 9.44164 19.9992 10.2046 19.9992 11.0001C19.9992 11.7955 19.6833 12.5585 19.1208 13.1211C18.0268 14.2161 16.1418 14.2611 14.9998 13.2361V18.0001C14.9998 19.6541 13.6538 21.0001 11.9998 21.0001ZM10.9998 8.41406V18.0001C11.0114 18.2575 11.1218 18.5007 11.308 18.6788C11.4943 18.8569 11.7421 18.9563 11.9998 18.9563C12.2576 18.9563 12.5054 18.8569 12.6917 18.6788C12.8779 18.5007 12.9883 18.2575 12.9998 18.0001V8.41406L16.2928 11.7071C16.4832 11.8891 16.7365 11.9907 16.9998 11.9907C17.2632 11.9907 17.5165 11.8891 17.7068 11.7071C17.8943 11.5195 17.9996 11.2652 17.9996 11.0001C17.9996 10.7349 17.8943 10.4806 17.7068 10.2931L11.9998 4.58606L6.29285 10.2931C6.10538 10.4806 6.00006 10.7349 6.00006 11.0001C6.00006 11.2652 6.10538 11.5195 6.29285 11.7071C6.48321 11.8891 6.73646 11.9907 6.99985 11.9907C7.26324 11.9907 7.51648 11.8891 7.70685 11.7071L10.9998 8.41406Z" fill="white"/>
</svg>
