<svg width="38" height="35" viewBox="0 0 38 35" fill="none" xmlns="http://www.w3.org/2000/svg">
<path d="M18.8856 3.68262C15.9281 3.68262 13.0372 4.49999 10.5782 6.03137C8.11916 7.56275 6.2026 9.73936 5.07085 12.286C3.9391 14.8326 3.64298 17.6348 4.21994 20.3382C4.7969 23.0417 6.22103 25.5249 8.31224 27.474C10.4034 29.4231 13.0678 30.7504 15.9684 31.2882C18.869 31.8259 21.8755 31.5499 24.6078 30.4951C27.3401 29.4403 29.6754 27.654 31.3185 25.3621C32.9615 23.0702 33.8385 20.3757 33.8385 17.6193C33.8343 13.9243 32.2576 10.3817 29.4543 7.76888C26.6509 5.1561 22.85 3.68652 18.8856 3.68262ZM18.8856 26.1957C18.5443 26.1957 18.2107 26.1014 17.927 25.9247C17.6433 25.748 17.4221 25.4969 17.2916 25.203C17.161 24.9092 17.1268 24.5858 17.1934 24.2739C17.2599 23.962 17.4243 23.6754 17.6656 23.4506C17.9069 23.2257 18.2143 23.0725 18.549 23.0105C18.8836 22.9484 19.2306 22.9802 19.5458 23.102C19.8611 23.2237 20.1305 23.4298 20.3201 23.6942C20.5097 23.9587 20.6109 24.2696 20.6109 24.5876C20.6109 25.0141 20.4291 25.4231 20.1056 25.7247C19.782 26.0263 19.3431 26.1957 18.8856 26.1957ZM20.0358 19.6669V19.7634C20.0358 20.0477 19.9146 20.3204 19.6989 20.5215C19.4832 20.7225 19.1906 20.8354 18.8856 20.8354C18.5805 20.8354 18.2879 20.7225 18.0722 20.5215C17.8565 20.3204 17.7353 20.0477 17.7353 19.7634V18.6913C17.7353 18.407 17.8565 18.1343 18.0722 17.9333C18.2879 17.7322 18.5805 17.6193 18.8856 17.6193C20.7877 17.6193 22.3362 16.4132 22.3362 14.9392C22.3362 13.4651 20.7877 12.259 18.8856 12.259C16.9834 12.259 15.4349 13.4651 15.4349 14.9392V15.4752C15.4349 15.7595 15.3137 16.0322 15.098 16.2332C14.8823 16.4343 14.5897 16.5472 14.2847 16.5472C13.9796 16.5472 13.687 16.4343 13.4713 16.2332C13.2556 16.0322 13.1344 15.7595 13.1344 15.4752V14.9392C13.1344 12.2791 15.7138 10.1149 18.8856 10.1149C22.0573 10.1149 24.6367 12.2791 24.6367 14.9392C24.6367 17.2682 22.6583 19.218 20.0358 19.6669Z" fill="#FF0000"/>
</svg>
